<svg width="503" height="331" viewBox="0 0 503 331" fill="none" xmlns="http://www.w3.org/2000/svg">
<path d="M0.131836 0H502.66V331H0.131836V0Z" fill="#F15858"/>
<path d="M73.5324 36.3259L200.688 19.2217L5.77701 141.03L73.5324 36.3259Z" fill="#A7BDFF"/>
<path d="M216.095 69.4981L319.111 160.588L164.142 194.36L216.095 69.4981Z" fill="#F1C95A"/>
<path d="M295.457 36.2479L490.7 15.8367L414.776 186.007L295.457 36.2479Z" fill="#6C90FB"/>
<path d="M35.3657 229V143.752H57.3817C63.099 143.752 68.5177 144.861 73.6377 147.08C78.7577 149.213 83.2803 152.243 87.2057 156.168C91.0457 160.179 94.0323 164.787 96.1657 169.992C98.3843 175.112 99.4937 180.573 99.4937 186.376C99.4937 192.179 98.3843 197.683 96.1657 202.888C94.0323 208.008 91.0457 212.531 87.2057 216.456C83.2803 220.467 78.7577 223.581 73.6377 225.8C68.5177 227.933 63.099 229 57.3817 229H35.3657ZM46.8857 155.272V217.48H57.3817C61.4777 217.48 65.403 216.669 69.1577 215.048C72.9977 213.427 76.3257 211.208 79.1417 208.392C81.9577 205.491 84.1337 202.163 85.6697 198.408C87.291 194.568 88.1017 190.557 88.1017 186.376C88.1017 182.195 87.291 178.227 85.6697 174.472C84.1337 170.632 81.9577 167.261 79.1417 164.36C76.3257 161.544 72.9977 159.325 69.1577 157.704C65.403 156.083 61.4777 155.272 57.3817 155.272H46.8857Z" fill="black"/>
<path d="M160.331 229V219.272C157.6 222.429 154.443 224.947 150.859 226.824C147.275 228.701 143.477 229.64 139.467 229.64C135.029 229.64 130.848 228.829 126.923 227.208C123.083 225.587 119.669 223.283 116.683 220.296C113.696 217.395 111.349 213.981 109.643 210.056C108.021 206.045 107.211 201.864 107.211 197.512C107.211 193.16 108.021 189.021 109.643 185.096C111.349 181.085 113.696 177.587 116.683 174.6C119.669 171.613 123.083 169.309 126.923 167.688C130.848 166.067 135.029 165.256 139.467 165.256C143.563 165.256 147.403 166.109 150.987 167.816C154.656 169.523 157.771 171.912 160.331 174.984V166.536H171.851V229H160.331ZM139.467 176.648C136.651 176.648 133.92 177.203 131.275 178.312C128.715 179.336 126.496 180.787 124.619 182.664C122.741 184.541 121.248 186.803 120.139 189.448C119.115 192.008 118.603 194.696 118.603 197.512C118.603 200.328 119.115 203.016 120.139 205.576C121.248 208.136 122.741 210.355 124.619 212.232C126.496 214.109 128.715 215.603 131.275 216.712C133.92 217.736 136.651 218.248 139.467 218.248C142.283 218.248 144.971 217.736 147.531 216.712C150.091 215.603 152.309 214.109 154.187 212.232C156.064 210.355 157.515 208.136 158.539 205.576C159.648 203.016 160.203 200.328 160.203 197.512C160.203 194.696 159.648 192.008 158.539 189.448C157.515 186.803 156.064 184.541 154.187 182.664C152.309 180.787 150.091 179.336 147.531 178.312C144.971 177.203 142.283 176.648 139.467 176.648Z" fill="black"/>
<path d="M224.168 229V190.6C224.168 186.76 222.76 183.432 219.944 180.616C217.213 177.885 213.885 176.52 209.96 176.52C206.12 176.52 202.792 177.928 199.976 180.744C198.696 182.024 197.672 183.56 196.904 185.352C196.136 187.059 195.752 188.808 195.752 190.6V229H184.616V166.536H195.752V171.784C197.373 169.821 199.506 168.2 202.152 166.92C204.797 165.64 207.4 165 209.96 165C213.373 165 216.616 165.683 219.688 167.048C222.845 168.328 225.618 170.163 228.008 172.552C230.312 174.856 232.104 177.587 233.384 180.744C234.749 183.816 235.432 187.101 235.432 190.6V229H224.168Z" fill="black"/>
<path d="M252.879 155.784C251.257 155.784 249.849 155.229 248.655 154.12C247.545 152.925 246.991 151.517 246.991 149.896C246.991 148.275 247.545 146.909 248.655 145.8C249.849 144.605 251.257 144.008 252.879 144.008C254.5 144.008 255.865 144.605 256.975 145.8C258.169 146.909 258.767 148.275 258.767 149.896C258.767 151.517 258.169 152.925 256.975 154.12C255.865 155.229 254.5 155.784 252.879 155.784ZM247.631 229V165H258.383V229H247.631Z" fill="black"/>
<path d="M278.749 201.864C278.749 203.912 279.474 206.045 280.925 208.264C282.461 210.483 284.21 212.36 286.173 213.896C289.757 216.712 293.938 218.12 298.717 218.12C306.311 218.12 312.498 214.451 317.277 207.112L327.005 212.872C323.677 218.248 319.581 222.387 314.717 225.288C309.853 228.189 304.519 229.64 298.717 229.64C294.365 229.64 290.226 228.829 286.301 227.208C282.375 225.501 278.919 223.155 275.933 220.168C272.946 217.181 270.599 213.725 268.893 209.8C267.271 205.875 266.461 201.736 266.461 197.384C266.461 193.032 267.271 188.893 268.893 184.968C270.599 180.957 272.946 177.459 275.933 174.472C278.834 171.485 282.247 169.181 286.173 167.56C290.183 165.939 294.365 165.128 298.717 165.128C303.069 165.128 307.207 165.939 311.133 167.56C315.143 169.181 318.599 171.485 321.501 174.472C327.815 180.957 330.973 188.467 330.973 197C330.973 198.536 330.845 200.157 330.589 201.864H278.749ZM298.717 175.624C295.218 175.624 291.933 176.392 288.861 177.928C285.789 179.464 283.314 181.512 281.437 184.072C279.645 186.547 278.749 189.192 278.749 192.008H318.685C318.685 189.192 317.746 186.547 315.869 184.072C314.077 181.512 311.645 179.464 308.573 177.928C305.501 176.392 302.215 175.624 298.717 175.624Z" fill="black"/>
<path d="M342.491 229V143.88H352.731V229H342.491Z" fill="black"/>
<path d="M365.491 229V143.88H375.731V229H365.491Z" fill="black"/>
<path d="M399.499 201.864C399.499 203.912 400.224 206.045 401.675 208.264C403.211 210.483 404.96 212.36 406.923 213.896C410.507 216.712 414.688 218.12 419.467 218.12C427.061 218.12 433.248 214.451 438.027 207.112L447.755 212.872C444.427 218.248 440.331 222.387 435.467 225.288C430.603 228.189 425.269 229.64 419.467 229.64C415.115 229.64 410.976 228.829 407.051 227.208C403.125 225.501 399.669 223.155 396.683 220.168C393.696 217.181 391.349 213.725 389.643 209.8C388.021 205.875 387.211 201.736 387.211 197.384C387.211 193.032 388.021 188.893 389.643 184.968C391.349 180.957 393.696 177.459 396.683 174.472C399.584 171.485 402.997 169.181 406.923 167.56C410.933 165.939 415.115 165.128 419.467 165.128C423.819 165.128 427.957 165.939 431.883 167.56C435.893 169.181 439.349 171.485 442.251 174.472C448.565 180.957 451.723 188.467 451.723 197C451.723 198.536 451.595 200.157 451.339 201.864H399.499ZM419.467 175.624C415.968 175.624 412.683 176.392 409.611 177.928C406.539 179.464 404.064 181.512 402.187 184.072C400.395 186.547 399.499 189.192 399.499 192.008H439.435C439.435 189.192 438.496 186.547 436.619 184.072C434.827 181.512 432.395 179.464 429.323 177.928C426.251 176.392 422.965 175.624 419.467 175.624Z" fill="black"/>
<path d="M114.091 314H102.699L89.5152 277.776L76.8431 314H65.3232L34.4751 228.752H46.8911L70.9551 295.44L83.2431 260.496L71.7231 228.752H84.1391L95.4032 259.984L108.331 295.44L131.627 228.752H144.043L114.091 314Z" fill="black"/>
<path d="M154.408 240.784C152.787 240.784 151.379 240.229 150.184 239.12C149.075 237.925 148.52 236.517 148.52 234.896C148.52 233.275 149.075 231.909 150.184 230.8C151.379 229.605 152.787 229.008 154.408 229.008C156.029 229.008 157.395 229.605 158.504 230.8C159.699 231.909 160.296 233.275 160.296 234.896C160.296 236.517 159.699 237.925 158.504 239.12C157.395 240.229 156.029 240.784 154.408 240.784ZM149.16 314V250H159.912V314H149.16Z" fill="black"/>
<path d="M201.526 269.072C201.27 267.536 200.715 266.085 199.862 264.72C198.241 261.904 195.041 260.496 190.262 260.496C187.702 260.496 185.739 260.795 184.374 261.392C182.582 262.075 181.217 263.056 180.278 264.336C179.425 265.616 178.998 267.024 178.998 268.56C178.998 270.437 179.681 272.144 181.046 273.68C182.497 275.301 184.843 276.155 188.086 276.24C193.803 276.496 198.411 277.179 201.91 278.288C205.494 279.397 208.225 281.317 210.102 284.048C212.065 286.779 213.046 290.619 213.046 295.568C213.046 300.603 211.126 304.955 207.286 308.624C205.409 310.416 203.19 311.867 200.63 312.976C198.155 314.085 195.553 314.64 192.822 314.64H190.902C184.075 314.64 178.571 312.677 174.39 308.752C170.977 305.595 168.843 301.157 167.99 295.44H179.382C179.809 297.488 180.662 299.152 181.942 300.432C183.905 302.309 186.635 303.248 190.134 303.248C191.073 303.248 191.755 303.205 192.182 303.12C195.169 302.949 197.515 302.139 199.222 300.688C200.929 299.152 201.782 297.275 201.782 295.056C201.782 291.984 200.843 289.979 198.966 289.04C197.089 288.101 193.462 287.632 188.086 287.632C181.345 287.632 176.182 285.499 172.598 281.232C169.697 277.989 168.246 273.893 168.246 268.944C168.246 267.835 168.289 266.981 168.374 266.384C169.057 260.837 171.318 256.613 175.158 253.712C179.083 250.725 184.246 249.232 190.646 249.232C195.339 249.232 199.435 250.256 202.934 252.304C205.409 253.84 207.542 255.973 209.334 258.704C211.041 261.435 212.15 264.848 212.662 268.944L212.406 269.072H201.526Z" fill="black"/>
<path d="M233.028 286.864C233.028 288.912 233.753 291.045 235.204 293.264C236.74 295.483 238.489 297.36 240.452 298.896C244.036 301.712 248.217 303.12 252.996 303.12C260.591 303.12 266.777 299.451 271.556 292.112L281.284 297.872C277.956 303.248 273.86 307.387 268.996 310.288C264.132 313.189 258.799 314.64 252.996 314.64C248.644 314.64 244.505 313.829 240.58 312.208C236.655 310.501 233.199 308.155 230.212 305.168C227.225 302.181 224.879 298.725 223.172 294.8C221.551 290.875 220.74 286.736 220.74 282.384C220.74 278.032 221.551 273.893 223.172 269.968C224.879 265.957 227.225 262.459 230.212 259.472C233.113 256.485 236.527 254.181 240.452 252.56C244.463 250.939 248.644 250.128 252.996 250.128C257.348 250.128 261.487 250.939 265.412 252.56C269.423 254.181 272.879 256.485 275.78 259.472C282.095 265.957 285.252 273.467 285.252 282C285.252 283.536 285.124 285.157 284.868 286.864H233.028ZM252.996 260.624C249.497 260.624 246.212 261.392 243.14 262.928C240.068 264.464 237.593 266.512 235.716 269.072C233.924 271.547 233.028 274.192 233.028 277.008H272.964C272.964 274.192 272.025 271.547 270.148 269.072C268.356 266.512 265.924 264.464 262.852 262.928C259.78 261.392 256.495 260.624 252.996 260.624Z" fill="black"/>
<path d="M336.322 314V275.6C336.322 271.76 334.914 268.432 332.098 265.616C329.367 262.885 326.039 261.52 322.114 261.52C318.274 261.52 314.946 262.928 312.13 265.744C310.85 267.024 309.826 268.56 309.058 270.352C308.29 272.059 307.906 273.808 307.906 275.6V314H296.77V251.536H307.906V256.784C309.527 254.821 311.661 253.2 314.306 251.92C316.951 250.64 319.554 250 322.114 250C325.527 250 328.77 250.683 331.842 252.048C334.999 253.328 337.773 255.163 340.162 257.552C342.466 259.856 344.258 262.587 345.538 265.744C346.903 268.816 347.586 272.101 347.586 275.6V314H336.322Z" fill="black"/>
</svg>
